<svg width="173" height="23" viewBox="0 0 173 23" fill="none" xmlns="http://www.w3.org/2000/svg">
<path d="M4.488 8.308C4.488 9.07333 4.58133 9.69867 4.768 10.184C4.95467 10.6507 5.216 11.024 5.552 11.304C5.90667 11.584 6.32667 11.78 6.812 11.892C7.29733 11.9853 7.82933 12.032 8.408 12.032C8.856 12.032 9.332 12.0133 9.836 11.976C10.3587 11.9387 10.8907 11.8827 11.432 11.808V2.596H15.8V22H11.432V15.504C10.7973 15.5787 10.1813 15.6347 9.584 15.672C8.98667 15.7093 8.41733 15.728 7.876 15.728C6.7 15.728 5.62667 15.6253 4.656 15.42C3.704 15.196 2.892 14.8133 2.22 14.272C1.548 13.712 1.02533 12.9747 0.652 12.06C0.297333 11.1267 0.12 9.95067 0.12 8.532V2.596H4.488V8.308ZM33.4033 7.272V22H29.2033C29.2033 21.0667 29.2126 20.1427 29.2313 19.228C29.2499 18.2947 29.2686 17.436 29.2873 16.652C29.3059 15.868 29.3246 15.1867 29.3433 14.608C29.3806 14.0107 29.3993 13.572 29.3993 13.292C28.8579 14.0573 28.3166 14.832 27.7753 15.616C27.2339 16.4 26.7113 17.1747 26.2073 17.94C25.7219 18.6867 25.2553 19.4053 24.8073 20.096C24.3779 20.7867 23.9953 21.4213 23.6593 22H19.9913V7.272H24.1633C24.1633 8.20533 24.1539 9.10133 24.1353 9.96C24.1353 10.8 24.1259 11.5653 24.1073 12.256C24.0886 12.9467 24.0699 13.5533 24.0513 14.076C24.0326 14.58 24.0233 14.972 24.0233 15.252C25.1433 13.6093 26.1699 12.1347 27.1033 10.828C28.0553 9.52133 28.9793 8.336 29.8753 7.272H33.4033ZM36.6272 14.636C36.6272 13.572 36.7952 12.5733 37.1312 11.64C37.4859 10.688 37.9899 9.86667 38.6432 9.176C39.2965 8.46667 40.0899 7.90667 41.0232 7.496C41.9565 7.08533 43.0205 6.88 44.2152 6.88C44.9992 6.88 45.7179 6.95467 46.3712 7.104C47.0245 7.23467 47.6592 7.43067 48.2752 7.692L47.4072 11.024C47.0152 10.8747 46.5859 10.744 46.1192 10.632C45.6525 10.52 45.1299 10.464 44.5512 10.464C43.3192 10.464 42.3952 10.8467 41.7792 11.612C41.1819 12.3773 40.8832 13.3853 40.8832 14.636C40.8832 15.9613 41.1632 16.988 41.7232 17.716C42.3019 18.444 43.3005 18.808 44.7192 18.808C45.2232 18.808 45.7645 18.7613 46.3432 18.668C46.9219 18.5747 47.4539 18.4253 47.9392 18.22L48.5272 21.636C48.0419 21.8413 47.4352 22.0187 46.7072 22.168C45.9792 22.3173 45.1765 22.392 44.2992 22.392C42.9552 22.392 41.7979 22.196 40.8272 21.804C39.8565 21.3933 39.0539 20.8427 38.4192 20.152C37.8032 19.4613 37.3459 18.6493 37.0472 17.716C36.7672 16.764 36.6272 15.7373 36.6272 14.636ZM63.5072 10.688H58.8032V22H54.6312V10.688H49.9272V7.272H63.5072V10.688ZM85.1901 22H81.0181V7.272H85.1901V22ZM72.2821 19.088C73.0475 19.088 73.6448 18.948 74.0741 18.668C74.5221 18.3693 74.7461 17.8933 74.7461 17.24C74.7461 16.904 74.6715 16.624 74.5221 16.4C74.3728 16.1573 74.1675 15.9707 73.9061 15.84C73.6448 15.6907 73.3368 15.588 72.9821 15.532C72.6461 15.476 72.2821 15.448 71.8901 15.448C71.6101 15.448 71.3021 15.4667 70.9661 15.504C70.6301 15.5413 70.3781 15.5787 70.2101 15.616V18.976C70.4341 19.0133 70.7328 19.0413 71.1061 19.06C71.4795 19.0787 71.8715 19.088 72.2821 19.088ZM70.2101 12.508C70.4715 12.4333 70.8075 12.3773 71.2181 12.34C71.6475 12.284 72.1328 12.256 72.6741 12.256C73.5328 12.256 74.3355 12.3587 75.0821 12.564C75.8475 12.7693 76.5101 13.0867 77.0701 13.516C77.6301 13.9267 78.0688 14.4587 78.3861 15.112C78.7221 15.7467 78.8901 16.4933 78.8901 17.352C78.8901 18.2107 78.7408 18.9573 78.4421 19.592C78.1435 20.208 77.7141 20.7213 77.1541 21.132C76.5941 21.524 75.9221 21.8133 75.1381 22C74.3728 22.2053 73.5141 22.308 72.5621 22.308C71.3301 22.308 70.2008 22.2427 69.1741 22.112C68.1475 22 67.1021 21.8133 66.0381 21.552V7.272H70.2101V12.508ZM102.528 7.272V22H98.3283C98.3283 21.0667 98.3376 20.1427 98.3563 19.228C98.3749 18.2947 98.3936 17.436 98.4123 16.652C98.4309 15.868 98.4496 15.1867 98.4683 14.608C98.5056 14.0107 98.5243 13.572 98.5243 13.292C97.9829 14.0573 97.4416 14.832 96.9003 15.616C96.3589 16.4 95.8363 17.1747 95.3323 17.94C94.8469 18.6867 94.3803 19.4053 93.9323 20.096C93.5029 20.7867 93.1203 21.4213 92.7843 22H89.1163V7.272H93.2883C93.2883 8.20533 93.2789 9.10133 93.2603 9.96C93.2603 10.8 93.2509 11.5653 93.2323 12.256C93.2136 12.9467 93.1949 13.5533 93.1763 14.076C93.1576 14.58 93.1483 14.972 93.1483 15.252C94.2683 13.6093 95.2949 12.1347 96.2283 10.828C97.1803 9.52133 98.1043 8.336 99.0003 7.272H102.528ZM95.8923 5.256C95.2949 5.256 94.7163 5.172 94.1562 5.004C93.6149 4.81733 93.1203 4.556 92.6723 4.22C92.2243 3.86533 91.8509 3.44533 91.5523 2.96C91.2723 2.456 91.1043 1.88667 91.0483 1.252L93.9323 0.496C94.0816 1.20533 94.3243 1.70933 94.6603 2.008C95.0149 2.30667 95.4256 2.456 95.8923 2.456C96.3776 2.456 96.7883 2.32533 97.1243 2.064C97.4789 1.784 97.7309 1.27067 97.8803 0.523999L100.736 1.28C100.68 1.91467 100.503 2.484 100.204 2.988C99.9243 3.47333 99.5603 3.884 99.1123 4.22C98.6829 4.556 98.1883 4.81733 97.6283 5.004C97.0683 5.172 96.4896 5.256 95.8923 5.256ZM115.216 6.292C115.16 7.54267 115.086 8.80267 114.992 10.072C114.918 11.3227 114.768 12.536 114.544 13.712C114.339 14.888 114.031 15.9893 113.62 17.016C113.228 18.0427 112.678 18.948 111.968 19.732C111.278 20.516 110.41 21.1413 109.364 21.608C108.319 22.0747 107.04 22.336 105.528 22.392L105.052 18.584C106.396 18.4347 107.432 18.0987 108.16 17.576C108.888 17.0347 109.439 16.2133 109.812 15.112C110.279 13.7493 110.606 11.9947 110.792 9.848C110.998 7.68267 111.1 5.26533 111.1 2.596H124.344V22H119.976V6.292H115.216ZM141.958 7.272V22H137.758C137.758 21.0667 137.767 20.1427 137.786 19.228C137.805 18.2947 137.823 17.436 137.842 16.652C137.861 15.868 137.879 15.1867 137.898 14.608C137.935 14.0107 137.954 13.572 137.954 13.292C137.413 14.0573 136.871 14.832 136.33 15.616C135.789 16.4 135.266 17.1747 134.762 17.94C134.277 18.6867 133.81 19.4053 133.362 20.096C132.933 20.7867 132.55 21.4213 132.214 22H128.546V7.272H132.718C132.718 8.20533 132.709 9.10133 132.69 9.96C132.69 10.8 132.681 11.5653 132.662 12.256C132.643 12.9467 132.625 13.5533 132.606 14.076C132.587 14.58 132.578 14.972 132.578 15.252C133.698 13.6093 134.725 12.1347 135.658 10.828C136.61 9.52133 137.534 8.336 138.43 7.272H141.958ZM145.182 14.636C145.182 13.572 145.35 12.5733 145.686 11.64C146.041 10.688 146.545 9.86667 147.198 9.176C147.851 8.46667 148.645 7.90667 149.578 7.496C150.511 7.08533 151.575 6.88 152.77 6.88C153.554 6.88 154.273 6.95467 154.926 7.104C155.579 7.23467 156.214 7.43067 156.83 7.692L155.962 11.024C155.57 10.8747 155.141 10.744 154.674 10.632C154.207 10.52 153.685 10.464 153.106 10.464C151.874 10.464 150.95 10.8467 150.334 11.612C149.737 12.3773 149.438 13.3853 149.438 14.636C149.438 15.9613 149.718 16.988 150.278 17.716C150.857 18.444 151.855 18.808 153.274 18.808C153.778 18.808 154.319 18.7613 154.898 18.668C155.477 18.5747 156.009 18.4253 156.494 18.22L157.082 21.636C156.597 21.8413 155.99 22.0187 155.262 22.168C154.534 22.3173 153.731 22.392 152.854 22.392C151.51 22.392 150.353 22.196 149.382 21.804C148.411 21.3933 147.609 20.8427 146.974 20.152C146.358 19.4613 145.901 18.6493 145.602 17.716C145.322 16.764 145.182 15.7373 145.182 14.636ZM172.062 10.688H167.358V22H163.186V10.688H158.482V7.272H172.062V10.688Z" fill="white"/>
</svg>
